<svg width="24" height="45" viewBox="0 0 24 45" fill="none" xmlns="http://www.w3.org/2000/svg">
<path fill-rule="evenodd" clip-rule="evenodd" d="M0.565913 0.69834C0.724251 0.540513 0.912349 0.415294 1.11943 0.329856C1.32652 0.244418 1.54852 0.200439 1.77273 0.200439C1.99694 0.200439 2.21894 0.244418 2.42603 0.329856C2.63311 0.415294 2.82121 0.540513 2.97955 0.69834L23.4341 21.0355C23.5928 21.1929 23.7188 21.3799 23.8047 21.5858C23.8906 21.7917 23.9349 22.0125 23.9349 22.2354C23.9349 22.4583 23.8906 22.679 23.8047 22.8849C23.7188 23.0908 23.5928 23.2779 23.4341 23.4353L2.97955 43.7724C2.65948 44.0907 2.22538 44.2695 1.77273 44.2695C1.32009 44.2695 0.885981 44.0907 0.565913 43.7724C0.245845 43.4542 0.0660322 43.0226 0.0660322 42.5726C0.0660322 42.1225 0.245845 41.6909 0.565913 41.3727L19.8171 22.2354L0.565913 3.09813C0.407175 2.9407 0.281233 2.75368 0.195302 2.54778C0.109371 2.34188 0.0651398 2.12115 0.0651398 1.89823C0.0651398 1.67531 0.109371 1.45458 0.195302 1.24869C0.281233 1.04279 0.407175 0.855769 0.565913 0.69834Z" fill="white"/>
</svg>
